<?xml version="1.0" encoding="UTF-8"?>
<!-- Generated by jsxcad -->
<!DOCTYPE svg PUBLIC "-//W3C//DTD SVG 1.1 Tiny//EN" "http://www.w3.org/Graphics/SVG/1.1/DTD/svg11-tiny.dtd">
<svg baseProfile="tiny" height="2.777616014796116mm" width="3.93700787401575mm" viewBox="-1.968503937007875 -1.388808007398058 3.93700787401575 2.777616014796116" version="1.1" stroke="black" stroke-width=".1" fill="none" xmlns="http://www.w3.org/2000/svg">
<path fill="#bababa" stroke="#bababa" d="M1.9510835481847955 -0.17411767057036648 L1.9685039370078738 0 L1.9510835481847955 0.17411767057036648 L1.9050038100076199 0.34504052149724 L1.8311664530305805 0.5131889237863434 L1.7267578394805911 0.6706754718265968 L1.5935508061492312 0.8193772732723129 L1.4364758459246647 0.9530651441746377 L1.2564918746858769 1.0745547669485476 L1.0545556805399323 1.1752942763499739 L0.8366141732283464 1.2602802822236052 L0.6092988376452942 1.3249930053159598 L0.36909448818897633 1.3671461541080627 L0.12303149606299212 1.3888080073980567 L-0.12303149606299212 1.3888080073980567 L-0.36909448818897633 1.3671461541080627 L-0.6092988376452942 1.3249930053159598 L-0.8366141732283464 1.2602802822236052 L-1.0545556805399323 1.1752942763499739 L-1.2564918746858769 1.0745547669485476 L-1.4364758459246647 0.9530651441746377 L-1.5935508061492312 0.8193772732723129 L-1.7267578394805911 0.6706754718265968 L-1.8311664530305805 0.5131889237863434 L-1.9050038100076199 0.34504052149724 L-1.9510835481847955 0.17411767057036648 L-1.9685039370078738 0 L-1.9510835481847955 -0.17411767057036648 L-1.9050038100076199 -0.34504052149724 L-1.8311664530305805 -0.5131889237863434 L-1.7267578394805911 -0.6706754718265968 L-1.5935508061492312 -0.8193772732723129 L-1.4364758459246647 -0.9530651441746377 L-1.2564918746858769 -1.0745547669485476 L-1.0545556805399323 -1.1752942763499739 L-0.8366141732283464 -1.2602802822236052 L-0.6092988376452942 -1.3249930053159598 L-0.36909448818897633 -1.3671461541080627 L-0.12303149606299212 -1.3888080073980567 L0.12303149606299212 -1.3888080073980567 L0.36909448818897633 -1.3671461541080627 L0.6092988376452942 -1.3249930053159598 L0.8366141732283464 -1.2602802822236052 L1.0545556805399323 -1.1752942763499739 L1.2564918746858769 -1.0745547669485476 L1.4364758459246647 -0.9530651441746377 L1.5935508061492312 -0.8193772732723129 L1.7267578394805911 -0.6706754718265968 L1.8311664530305805 -0.5131889237863434 L1.9050038100076199 -0.34504052149724 z"/>
</svg>